<svg width="32" height="33" viewBox="0 0 32 33" fill="none" xmlns="http://www.w3.org/2000/svg">
<g clip-path="url(#clip0)">
<path d="M15.2078 0.597867L0.781159 7.33787C0.683598 7.38261 0.60095 7.45444 0.543053 7.54481C0.485156 7.63519 0.45445 7.7403 0.45459 7.84763C0.454731 7.95496 0.485711 8.05999 0.543844 8.15021C0.601977 8.24043 0.684814 8.31205 0.782492 8.35653L15.3225 15.0472C15.7518 15.2445 16.2478 15.2445 16.6772 15.0472L31.2172 8.35653C31.3149 8.31218 31.3978 8.24067 31.4561 8.15052C31.5143 8.06038 31.5454 7.95539 31.5457 7.84806C31.546 7.74073 31.5154 7.63558 31.4577 7.54512C31.3999 7.45467 31.3173 7.38273 31.2198 7.33787L16.7918 0.597867C16.5439 0.481992 16.2735 0.421936 15.9998 0.421936C15.7261 0.421936 15.4558 0.481992 15.2078 0.597867V0.597867Z" fill="#1A2C42"/>
<path opacity="0.64" d="M31.22 15.9899L28.24 14.5979C28.0266 14.4982 27.794 14.4461 27.5584 14.4455C27.3229 14.4448 27.09 14.4954 26.876 14.5939L16.6773 19.2872C16.4649 19.3849 16.2338 19.4355 16 19.4355C15.7662 19.4355 15.5351 19.3849 15.3227 19.2872L5.12267 14.5939C4.90886 14.4956 4.67621 14.4451 4.4409 14.4458C4.20559 14.4465 3.97324 14.4984 3.76001 14.5979L0.780006 15.9899C0.682503 16.0347 0.599949 16.1067 0.54217 16.1971C0.48439 16.2876 0.453823 16.3927 0.454103 16.5001C0.454384 16.6074 0.485502 16.7124 0.543754 16.8025C0.602006 16.8927 0.684937 16.9642 0.782674 17.0085L15.3227 23.6979C15.535 23.7961 15.7661 23.8469 16 23.8469C16.2339 23.8469 16.465 23.7961 16.6773 23.6979L31.2173 17.0085C31.3151 16.9642 31.398 16.8927 31.4563 16.8025C31.5145 16.7124 31.5456 16.6074 31.5459 16.5001C31.5462 16.3927 31.5156 16.2876 31.4578 16.1971C31.4001 16.1067 31.3175 16.0347 31.22 15.9899Z" fill="#FF8945"/>
<path d="M31.22 24.5659L28.24 23.1739C28.0266 23.0742 27.794 23.0221 27.5585 23.0215C27.3229 23.0208 27.09 23.0714 26.876 23.1699L16.6774 27.8619C16.4649 27.9596 16.2338 28.0101 16 28.0101C15.7662 28.0101 15.5351 27.9596 15.3227 27.8619L5.12269 23.1685C4.90887 23.0703 4.67623 23.0197 4.44091 23.0204C4.2056 23.0211 3.97326 23.073 3.76002 23.1725L0.780019 24.5659C0.682891 24.6109 0.600708 24.6828 0.543205 24.7731C0.485701 24.8634 0.455288 24.9683 0.455568 25.0754C0.455849 25.1824 0.486813 25.2872 0.544789 25.3772C0.602765 25.4672 0.685324 25.5387 0.782686 25.5832L15.3227 32.2739C15.752 32.4712 16.248 32.4712 16.6774 32.2739L31.2174 25.5832C31.3147 25.5387 31.3973 25.4672 31.4553 25.3772C31.5132 25.2872 31.5442 25.1824 31.5445 25.0754C31.5448 24.9683 31.5143 24.8634 31.4568 24.7731C31.3993 24.6828 31.3171 24.6109 31.22 24.5659Z" fill="#119DA4"/>
</g>
<defs>
<clipPath id="clip0">
<rect width="32" height="32" fill="white" transform="translate(0 0.421875)"/>
</clipPath>
</defs>
</svg>
