<svg width="32" height="33" viewBox="0 0 32 33" fill="none" xmlns="http://www.w3.org/2000/svg">
<path d="M30.6666 8.42187V3.08854C30.6666 2.73491 30.5261 2.39577 30.2761 2.14573C30.026 1.89568 29.6869 1.7552 29.3333 1.7552H2.66659C2.31296 1.7552 1.97382 1.89568 1.72378 2.14573C1.47373 2.39577 1.33325 2.73491 1.33325 3.08854V8.42187H30.6666Z" fill="#119DA4"/>
<path d="M1.33325 11.0885V29.7552C1.33325 30.1088 1.47373 30.448 1.72378 30.698C1.97382 30.9481 2.31296 31.0885 2.66659 31.0885H9.33325V11.0885H1.33325Z" fill="#FF8945"/>
<path d="M12 31.0885H29.3333C29.687 31.0885 30.0261 30.9481 30.2761 30.698C30.5262 30.448 30.6667 30.1088 30.6667 29.7552V11.0885H12V31.0885Z" fill="#1A2C42"/>
</svg>
