<svg width="794" height="591" viewBox="0 0 794 591" fill="none" xmlns="http://www.w3.org/2000/svg">
<path d="M793.396 519.121H0.603516V519.517H793.396V519.121Z" fill="#EBEBEB"/>
<path d="M713.957 544.632H679.581V545.028H713.957V544.632Z" fill="#EBEBEB"/>
<path d="M547.105 536.419H493.021V536.816H547.105V536.419Z" fill="#EBEBEB"/>
<path d="M700.037 529.918H629.431V530.315H700.037V529.918Z" fill="#EBEBEB"/>
<path d="M274.941 537.909H257.277V538.305H274.941V537.909Z" fill="#EBEBEB"/>
<path d="M243.149 537.909H182.278V538.305H243.149V537.909Z" fill="#EBEBEB"/>
<path d="M149.665 531.218H105.744V531.615H149.665V531.218Z" fill="#EBEBEB"/>
<path d="M376.388 448.403H70.2278C67.8293 448.399 65.5306 447.443 63.8361 445.746C62.1416 444.048 61.1899 441.748 61.1899 439.349V8.97441C61.2108 6.58973 62.1717 4.30958 63.8639 2.62924C65.5562 0.948906 67.843 0.00408508 70.2278 0H376.388C378.789 0 381.092 0.953868 382.79 2.65176C384.488 4.34966 385.442 6.6525 385.442 9.05368V439.349C385.442 441.751 384.488 444.054 382.79 445.751C381.092 447.449 378.789 448.403 376.388 448.403V448.403ZM70.2278 0.317118C67.9345 0.321318 65.7365 1.23527 64.1164 2.85837C62.4963 4.48148 61.5863 6.68109 61.5863 8.97441V439.349C61.5863 441.643 62.4963 443.842 64.1164 445.466C65.7365 447.089 67.9345 448.003 70.2278 448.007H376.388C378.683 448.003 380.883 447.089 382.505 445.466C384.128 443.844 385.041 441.644 385.046 439.349V8.97441C385.041 6.67964 384.128 4.48006 382.505 2.85741C380.883 1.23476 378.683 0.321309 376.388 0.317118H70.2278Z" fill="#EBEBEB"/>
<path d="M719.363 448.403H413.187C410.787 448.399 408.487 447.444 406.79 445.747C405.093 444.05 404.138 441.749 404.134 439.349V8.97441C404.159 6.58828 405.123 4.30815 406.818 2.62825C408.512 0.948352 410.801 0.00404053 413.187 0H719.363C721.745 0.00825217 724.028 0.954917 725.717 2.63481C727.406 4.3147 728.365 6.59247 728.385 8.97441V439.349C728.385 441.745 727.436 444.043 725.745 445.74C724.054 447.437 721.759 448.395 719.363 448.403V448.403ZM413.187 0.317118C410.892 0.321309 408.693 1.23476 407.07 2.85741C405.448 4.48006 404.534 6.67964 404.53 8.97441V439.349C404.534 441.644 405.448 443.844 407.07 445.466C408.693 447.089 410.892 448.003 413.187 448.007H719.363C721.658 448.003 723.858 447.089 725.48 445.466C727.103 443.844 728.017 441.644 728.021 439.349V8.97441C728.017 6.67964 727.103 4.48006 725.48 2.85741C723.858 1.23476 721.658 0.321309 719.363 0.317118H413.187Z" fill="#EBEBEB"/>
<path d="M182.945 189.684C191.738 189.684 200.171 186.19 206.389 179.973C212.606 173.755 216.1 165.322 216.1 156.529C216.1 147.736 212.606 139.303 206.389 133.085C200.171 126.867 191.738 123.374 182.945 123.374H178.87V189.684H182.945Z" fill="#E0E0E0"/>
<path d="M178.84 189.684C197.15 189.684 211.994 174.84 211.994 156.529C211.994 138.218 197.15 123.374 178.84 123.374C160.529 123.374 145.685 138.218 145.685 156.529C145.685 174.84 160.529 189.684 178.84 189.684Z" fill="#F5F5F5"/>
<path d="M177.316 160.683C165.541 160.683 154.249 156.006 145.923 147.68C137.597 139.354 132.919 128.062 132.919 116.287V89.792C132.919 88.686 133.359 87.6253 134.141 86.8433C134.923 86.0612 135.983 85.6219 137.089 85.6219C138.195 85.6219 139.256 86.0612 140.038 86.8433C140.82 87.6253 141.259 88.686 141.259 89.792V116.303C141.268 125.86 145.067 135.024 151.824 141.784C158.58 148.543 167.742 152.347 177.3 152.359C177.868 152.324 178.437 152.406 178.973 152.599C179.508 152.792 179.998 153.093 180.413 153.483C180.828 153.873 181.158 154.344 181.384 154.866C181.61 155.389 181.727 155.952 181.727 156.521C181.727 157.091 181.61 157.654 181.384 158.176C181.158 158.699 180.828 159.17 180.413 159.559C179.998 159.949 179.508 160.25 178.973 160.444C178.437 160.637 177.868 160.719 177.3 160.683H177.316Z" fill="#E0E0E0"/>
<path d="M100.226 113.132H173.987C175.167 113.133 176.331 112.862 177.389 112.341C178.448 111.821 179.373 111.064 180.093 110.13C180.813 109.195 181.308 108.108 181.542 106.952C181.775 105.795 181.74 104.601 181.439 103.46L175.018 79.2802C174.584 77.6375 173.62 76.1841 172.275 75.1461C170.93 74.1081 169.28 73.5435 167.581 73.5403H106.631C104.931 73.5427 103.278 74.1067 101.93 75.1446C100.583 76.1825 99.6157 77.6362 99.1792 79.2802L92.8368 103.429C92.5281 104.566 92.4851 105.76 92.7111 106.917C92.9371 108.074 93.4261 109.163 94.1403 110.101C94.8544 111.039 95.7746 111.8 96.8298 112.326C97.885 112.851 99.0468 113.127 100.226 113.132V113.132Z" fill="#F5F5F5"/>
<path d="M651.136 189.684C659.929 189.684 668.362 186.19 674.58 179.973C680.797 173.755 684.29 165.322 684.29 156.529C684.29 147.736 680.797 139.303 674.58 133.085C668.362 126.867 659.929 123.374 651.136 123.374H647.061V189.684H651.136Z" fill="#E0E0E0"/>
<path d="M647.062 189.684C665.373 189.684 680.217 174.84 680.217 156.529C680.217 138.218 665.373 123.374 647.062 123.374C628.752 123.374 613.908 138.218 613.908 156.529C613.908 174.84 628.752 189.684 647.062 189.684Z" fill="#F5F5F5"/>
<path d="M645.54 160.683C633.766 160.683 622.473 156.006 614.147 147.68C605.821 139.354 601.144 128.062 601.144 116.287V89.792C601.144 88.686 601.583 87.6253 602.365 86.8433C603.147 86.0612 604.208 85.6219 605.314 85.6219C606.42 85.6219 607.481 86.0612 608.263 86.8433C609.045 87.6253 609.484 88.686 609.484 89.792V116.303C609.492 125.86 613.292 135.024 620.048 141.784C626.805 148.543 635.967 152.347 645.524 152.359C646.092 152.324 646.662 152.406 647.197 152.599C647.733 152.792 648.223 153.093 648.638 153.483C649.052 153.873 649.383 154.344 649.609 154.866C649.835 155.389 649.951 155.952 649.951 156.521C649.951 157.091 649.835 157.654 649.609 158.176C649.383 158.699 649.052 159.17 648.638 159.559C648.223 159.949 647.733 160.25 647.197 160.444C646.662 160.637 646.092 160.719 645.524 160.683H645.54Z" fill="#E0E0E0"/>
<path d="M568.448 113.132H642.21C643.389 113.132 644.553 112.861 645.612 112.341C646.67 111.82 647.595 111.063 648.315 110.129C649.035 109.194 649.531 108.107 649.765 106.951C649.998 105.795 649.963 104.6 649.662 103.459L643.32 79.311C642.886 77.6684 641.922 76.215 640.577 75.177C639.232 74.1389 637.582 73.5744 635.883 73.5712H574.854C573.153 73.5736 571.501 74.1375 570.153 75.1754C568.806 76.2133 567.839 77.6671 567.402 79.311L561.06 103.459C560.757 104.595 560.718 105.785 560.947 106.938C561.176 108.091 561.665 109.176 562.379 110.11C563.092 111.044 564.011 111.802 565.063 112.326C566.115 112.85 567.273 113.125 568.448 113.132V113.132Z" fill="#F5F5F5"/>
<path d="M213.04 413.616H237.157V320.178H213.04V413.616Z" fill="#E6E6E6"/>
<path d="M147.668 413.6H227.693L239.775 304.242H159.75L147.668 413.6Z" fill="#F0F0F0"/>
<path d="M138.991 413.6H221.663L233.746 304.242H151.089L138.991 413.6Z" fill="#F5F5F5"/>
<path d="M215.689 404.989L225.868 312.867H157.054L146.875 404.989H215.689Z" fill="white"/>
<path d="M201.482 382.648L201.974 378.954C204.527 355.836 190.098 335.24 171.356 335.24L170.928 338.997C168.375 362.099 182.804 382.696 201.562 382.696L201.482 382.648Z" fill="#F5F5F5"/>
<path d="M94.2962 519.121H165.394V413.6H94.2962L94.2962 519.121Z" fill="#E6E6E6"/>
<path d="M101.432 519.12H94.2812V498.777H108.932L101.432 519.12Z" fill="#F0F0F0"/>
<path d="M293.557 519.121H364.654V413.6H293.557V519.121Z" fill="#E6E6E6"/>
<path d="M94.2808 506.642H299.788V413.615H94.2808V506.642Z" fill="#F0F0F0"/>
<path d="M292.635 519.12H299.786V498.777H285.135L292.635 519.12Z" fill="#F0F0F0"/>
<path d="M99.8296 456.966H294.238V419.419H99.8296V456.966Z" fill="#E6E6E6"/>
<path d="M184.072 443.963H209.997C215.57 443.965 221.086 442.83 226.206 440.627C231.326 438.425 235.943 435.2 239.774 431.152H154.295C158.128 435.198 162.745 438.421 167.864 440.624C172.984 442.826 178.499 443.963 184.072 443.963V443.963Z" fill="#F0F0F0"/>
<path d="M99.8296 500.569H294.238V463.022H99.8296V500.569Z" fill="#E6E6E6"/>
<path d="M184.072 487.503H209.997C215.57 487.505 221.086 486.37 226.206 484.167C231.326 481.964 235.943 478.74 239.774 474.691H154.295C158.128 478.738 162.745 481.96 167.864 484.163C172.984 486.366 178.499 487.502 184.072 487.503V487.503Z" fill="#F0F0F0"/>
<path d="M286.771 409.303H288.61C288.61 405.514 288.61 395.921 288.801 373.929C289.134 334.052 289.768 331.626 289.768 331.626L285.392 350.034C282.617 370.409 286.2 390.895 286.771 409.303Z" fill="#E6E6E6"/>
<path d="M283.14 347.242C276.798 339.742 263.4 337.554 249.637 335.683C244.23 334.954 263.828 347.306 273.421 356.074C280.873 362.892 285.63 364.779 287.691 371.565C288.737 363.098 288.563 353.759 283.14 347.242Z" fill="#E6E6E6"/>
<path d="M291.493 360.689C297.836 353.189 311.234 351.017 324.997 349.146C330.404 348.417 310.726 360.768 301.213 369.537C293.761 376.355 289.004 378.242 286.943 385.028C285.896 376.561 286.007 367.158 291.493 360.689Z" fill="#E6E6E6"/>
<path d="M288.8 329.801C293.557 320.827 305.385 312.36 318.72 309.189C323.953 307.936 306.59 325.742 299.994 337.238C294.873 346.148 288.087 356.645 287.024 364.192C285.439 349.32 284.075 338.823 288.8 329.801Z" fill="#E6E6E6"/>
<path d="M288.231 413.6C282.618 413.6 277.972 410.793 277.639 407.178L276.703 401.026H299.774L298.822 407.178C298.505 410.793 293.939 413.6 288.231 413.6Z" fill="#F0F0F0"/>
<path d="M301.264 403.388H275.213L274.467 396.522H302.009L301.264 403.388Z" fill="#F0F0F0"/>
<path d="M269.424 272.276L523.45 272.276V40.5742L269.424 40.5742V272.276Z" fill="#E6E6E6"/>
<path d="M263.716 272.276L520.962 272.276V40.5742L263.716 40.5742V272.276Z" fill="#F5F5F5"/>
<path d="M510.685 261.906V50.96L273.957 50.96V261.906H510.685Z" fill="#FAFAFA"/>
<path d="M481.653 261.906L388.484 50.96H356.836L450.005 261.906H481.653Z" fill="white"/>
<path d="M441.033 261.906L347.864 50.96H326.078L419.247 261.906H441.033Z" fill="white"/>
<path d="M361.863 261.891V50.945H349.622V261.891H361.863Z" fill="#E6E6E6"/>
<path d="M443.235 261.891V50.945H430.994V261.891H443.235Z" fill="#E6E6E6"/>
<path d="M359.661 268.487V43.2391H344.185V268.487H359.661Z" fill="#F5F5F5"/>
<path d="M441.032 268.487V43.2391H425.557V268.487H441.032Z" fill="#F5F5F5"/>
<path d="M275.068 261.908V50.9618H273.974V261.908H275.068Z" fill="#E6E6E6"/>
<path d="M259.405 27.2238H534.599C534.951 27.2279 535.287 27.3695 535.536 27.6184C535.785 27.8673 535.926 28.2037 535.931 28.5557C535.926 28.9061 535.784 29.2409 535.535 29.4872C535.286 29.7336 534.949 29.8717 534.599 29.8717H259.405C259.054 29.8717 258.718 29.7336 258.469 29.4872C258.219 29.2409 258.077 28.9061 258.073 28.5557V28.5557C258.077 28.2037 258.219 27.8673 258.468 27.6184C258.716 27.3695 259.053 27.2279 259.405 27.2238Z" fill="#E6E6E6"/>
<path d="M523.45 35.9612C523.922 35.957 524.374 35.7664 524.706 35.4308C525.039 35.0953 525.226 34.6419 525.226 34.1695V30.3324C525.228 30.0978 525.183 29.8652 525.095 29.6479C525.007 29.4306 524.876 29.233 524.711 29.0664C524.546 28.8998 524.35 28.7676 524.133 28.6773C523.917 28.5871 523.684 28.5406 523.45 28.5406V28.5406C522.977 28.5406 522.524 28.7272 522.188 29.0598C521.853 29.3924 521.662 29.8441 521.658 30.3165V34.1536C521.658 34.6303 521.846 35.0877 522.182 35.4262C522.517 35.7647 522.973 35.957 523.45 35.9612V35.9612Z" fill="#E6E6E6"/>
<path d="M279.349 35.9612C279.823 35.957 280.276 35.7669 280.611 35.4318C280.947 35.0967 281.137 34.6434 281.141 34.1695V30.3324C281.141 29.8572 280.952 29.4014 280.616 29.0654C280.28 28.7294 279.824 28.5406 279.349 28.5406V28.5406C278.878 28.5406 278.426 28.7277 278.093 29.0608C277.76 29.3938 277.573 29.8455 277.573 30.3165V34.1536C277.571 34.3889 277.615 34.6223 277.704 34.8405C277.792 35.0587 277.922 35.2574 278.087 35.4252C278.252 35.5931 278.448 35.7268 278.665 35.8188C278.881 35.9107 279.114 35.9591 279.349 35.9612Z" fill="#E6E6E6"/>
<path opacity="0.6" d="M259.815 209.995L516.885 209.995V28.5408L259.815 28.5408V209.995Z" fill="#E0E0E0"/>
<path d="M540.161 324.998H495.828C491.117 324.998 487.298 328.817 487.298 333.528V354.046C487.298 358.757 491.117 362.576 495.828 362.576H540.161C544.872 362.576 548.691 358.757 548.691 354.046V333.528C548.691 328.817 544.872 324.998 540.161 324.998Z" fill="#FAFAFA"/>
<path d="M545.821 318.053H490.168C488.583 318.053 487.298 319.338 487.298 320.923V323.238C487.298 324.823 488.583 326.108 490.168 326.108H545.821C547.406 326.108 548.691 324.823 548.691 323.238V320.923C548.691 319.338 547.406 318.053 545.821 318.053Z" fill="#E6E6E6"/>
<path d="M488.203 404.324C488.203 404.324 489.011 430.755 519.803 430.755C550.595 430.755 551.404 404.324 551.404 404.324H488.203Z" fill="#F0F0F0"/>
<path d="M558.414 404.324C558.414 404.324 559.222 430.755 590.014 430.755C620.806 430.755 621.615 404.324 621.615 404.324H558.414Z" fill="#F0F0F0"/>
<path d="M606.361 307.983H545.475C538.995 307.983 533.741 313.236 533.741 319.716V350.857C533.741 357.337 538.995 362.591 545.475 362.591H606.361C612.841 362.591 618.095 357.337 618.095 350.857V319.716C618.095 313.236 612.841 307.983 606.361 307.983Z" fill="#F0F0F0"/>
<path d="M614.162 298.44H537.674C535.502 298.44 533.741 300.2 533.741 302.372V305.575C533.741 307.747 535.502 309.507 537.674 309.507H614.162C616.334 309.507 618.095 307.747 618.095 305.575V302.372C618.095 300.2 616.334 298.44 614.162 298.44Z" fill="#F5F5F5"/>
<path d="M465.006 519.121H472.998V388.088H465.006V519.121Z" fill="#E6E6E6"/>
<path d="M695.756 362.576H652.486V388.072H695.756V362.576Z" fill="#E6E6E6"/>
<path d="M437.338 388.086H652.47V362.59H437.338V388.086Z" fill="#F5F5F5"/>
<path d="M695.756 430.677H652.486V456.173H695.756V430.677Z" fill="#E6E6E6"/>
<path d="M437.338 456.173H652.47V430.677H437.338V456.173Z" fill="#F5F5F5"/>
<path d="M680.138 519.121H688.129V388.088H680.138V519.121Z" fill="#E6E6E6"/>
<path d="M644.494 519.121H652.486V388.088H644.494V519.121Z" fill="#F5F5F5"/>
<path d="M437.338 519.121H445.329V388.088H437.338V519.121Z" fill="#F5F5F5"/>
<path d="M396.999 590.726C566.788 590.726 704.428 582.69 704.428 572.777C704.428 562.864 566.788 554.828 396.999 554.828C227.211 554.828 89.5706 562.864 89.5706 572.777C89.5706 582.69 227.211 590.726 396.999 590.726Z" fill="#F5F5F5"/>
<path d="M413.505 492.323H211.232C207.979 492.277 204.864 491.003 202.512 488.756C200.159 486.51 198.743 483.457 198.547 480.209L180.408 128.923C180.308 127.361 180.531 125.794 181.064 124.322C181.597 122.85 182.429 121.504 183.507 120.368C184.584 119.232 185.885 118.331 187.327 117.722C188.77 117.112 190.322 116.807 191.888 116.825H394.161C397.412 116.868 400.527 118.138 402.88 120.382C405.233 122.627 406.65 125.678 406.846 128.923L424.953 480.209C425.053 481.77 424.831 483.335 424.3 484.806C423.769 486.276 422.94 487.622 421.866 488.759C420.792 489.895 419.495 490.798 418.057 491.412C416.618 492.025 415.069 492.335 413.505 492.323V492.323Z" fill="#F39325"/>
<path opacity="0.8" d="M413.505 492.323H211.232C207.979 492.277 204.864 491.003 202.512 488.756C200.159 486.51 198.743 483.457 198.547 480.209L180.408 128.923C180.308 127.361 180.531 125.794 181.064 124.322C181.597 122.85 182.429 121.504 183.507 120.368C184.584 119.232 185.885 118.331 187.327 117.722C188.77 117.112 190.322 116.807 191.888 116.825H394.161C397.412 116.868 400.527 118.138 402.88 120.382C405.233 122.627 406.65 125.678 406.846 128.923L424.953 480.209C425.053 481.77 424.831 483.335 424.3 484.806C423.769 486.276 422.94 487.622 421.866 488.759C420.792 489.895 419.495 490.798 418.057 491.412C416.618 492.025 415.069 492.335 413.505 492.323V492.323Z" fill="white"/>
<path d="M374.199 105.378H351.827V106.963H374.199V105.378Z" fill="#F39325"/>
<path d="M344.071 105.378H335.874V106.963H344.071V105.378Z" fill="#F39325"/>
<path d="M422.211 470.03H228.77C225.655 470 222.667 468.791 220.408 466.646C218.148 464.501 216.785 461.58 216.593 458.471L199.278 122.486C199.182 120.99 199.396 119.491 199.906 118.082C200.417 116.673 201.213 115.385 202.244 114.299C203.276 113.212 204.521 112.35 205.902 111.767C207.282 111.184 208.768 110.893 210.266 110.911H403.708C406.823 110.945 409.809 112.158 412.065 114.306C414.322 116.454 415.681 119.376 415.869 122.486L433.184 458.471C433.28 459.964 433.067 461.461 432.557 462.868C432.047 464.275 431.252 465.562 430.222 466.647C429.192 467.732 427.949 468.593 426.57 469.175C425.192 469.757 423.708 470.048 422.211 470.03Z" fill="#119DA4" fill-opacity="0.22"/>
<path d="M422.211 462.309H228.77C227.635 462.27 226.554 461.816 225.733 461.033C224.912 460.249 224.407 459.191 224.314 458.06L206.984 122.091C206.944 121.644 207 121.193 207.148 120.77C207.296 120.346 207.531 119.959 207.84 119.633C208.149 119.308 208.524 119.052 208.939 118.883C209.355 118.713 209.801 118.634 210.25 118.65H403.691C404.823 118.693 405.9 119.149 406.718 119.932C407.536 120.715 408.038 121.77 408.131 122.899L425.541 458.869C425.579 459.314 425.522 459.762 425.375 460.184C425.228 460.606 424.993 460.992 424.686 461.317C424.379 461.642 424.007 461.898 423.594 462.069C423.181 462.24 422.737 462.322 422.29 462.309H422.211ZM210.25 119.046C209.856 119.033 209.463 119.103 209.097 119.25C208.732 119.398 208.4 119.62 208.125 119.902C207.861 120.195 207.658 120.539 207.53 120.912C207.402 121.286 207.351 121.681 207.38 122.075L224.695 458.044C224.783 459.073 225.244 460.034 225.992 460.747C226.739 461.459 227.722 461.874 228.754 461.913H422.195C422.587 461.928 422.978 461.86 423.342 461.712C423.705 461.565 424.033 461.341 424.304 461.057C424.575 460.768 424.782 460.425 424.91 460.051C425.039 459.676 425.086 459.279 425.049 458.884L407.75 122.915C407.666 121.887 407.208 120.926 406.463 120.213C405.718 119.501 404.737 119.085 403.707 119.046H210.25Z" fill="white"/>
<path opacity="0.3" d="M354.549 241.098C376.55 218.52 375.118 181.44 351.349 158.277C327.579 135.114 290.475 134.639 268.473 157.217C246.471 179.795 247.904 216.875 271.673 240.038C295.442 263.201 332.547 263.675 354.549 241.098Z" fill="white"/>
<path d="M358.947 199.164C359.391 206.956 357.824 214.731 354.397 221.743C350.687 229.264 344.927 235.583 337.782 239.973C330.637 244.364 322.397 246.646 314.012 246.557C305.322 246.479 296.8 244.152 289.276 239.804C281.751 235.456 275.481 229.233 271.074 221.743C266.968 214.893 264.605 207.14 264.193 199.164C263.802 193.047 264.678 186.916 266.765 181.153C268.853 175.39 272.108 170.12 276.326 165.673C280.544 161.226 285.634 157.697 291.278 155.308C296.923 152.919 302.999 151.72 309.128 151.787C321.884 151.92 334.116 156.881 343.36 165.672C352.604 174.464 358.174 186.431 358.947 199.164V199.164Z" fill="white"/>
<path d="M354.348 221.743C350.638 229.263 344.879 235.583 337.734 239.973C330.589 244.363 322.349 246.646 313.963 246.557C305.273 246.479 296.751 244.152 289.227 239.804C281.703 235.455 275.432 229.233 271.026 221.743C283.075 213.421 297.386 208.994 312.029 209.058C327.064 209.115 341.761 213.52 354.348 221.743V221.743Z" fill="#119DA4" fill-opacity="0.6"/>
<path d="M326.198 198.062C334.125 189.928 333.606 176.566 325.039 168.218C316.472 159.87 303.101 159.696 295.175 167.83C287.248 175.964 287.767 189.326 296.334 197.674C304.901 206.023 318.272 206.197 326.198 198.062Z" fill="#119DA4" fill-opacity="0.6"/>
<path d="M394.477 339.315H243.006C241.687 339.301 240.422 338.788 239.466 337.879C238.509 336.97 237.933 335.733 237.853 334.416L236.711 312.217C236.672 311.586 236.763 310.953 236.98 310.359C237.196 309.764 237.533 309.221 237.969 308.762C238.405 308.304 238.931 307.941 239.514 307.695C240.097 307.449 240.725 307.326 241.357 307.334H392.828C394.145 307.347 395.408 307.858 396.364 308.764C397.319 309.67 397.897 310.903 397.981 312.217L399.123 334.416C399.164 335.048 399.075 335.683 398.859 336.279C398.644 336.876 398.307 337.421 397.871 337.881C397.435 338.341 396.908 338.706 396.324 338.953C395.74 339.2 395.111 339.323 394.477 339.315V339.315Z" fill="white"/>
<path opacity="0.3" d="M348.1 295.078H284.835C283.511 295.068 282.239 294.554 281.279 293.641C280.319 292.729 279.743 291.485 279.666 290.162L279.428 285.405C279.387 284.773 279.476 284.138 279.692 283.542C279.907 282.946 280.244 282.4 280.68 281.94C281.116 281.48 281.643 281.115 282.227 280.868C282.811 280.621 283.44 280.498 284.074 280.506H347.323C348.642 280.52 349.908 281.033 350.864 281.942C351.82 282.851 352.396 284.089 352.476 285.405L352.73 290.162C352.769 290.794 352.678 291.427 352.463 292.022C352.248 292.617 351.913 293.162 351.479 293.622C351.045 294.083 350.521 294.45 349.94 294.7C349.359 294.95 348.733 295.079 348.1 295.078V295.078Z" fill="black"/>
<path opacity="0.3" d="M371.629 446.041H276.858C274.614 446.014 272.463 445.139 270.837 443.592C269.211 442.045 268.23 439.941 268.09 437.701L267.535 426.761C267.479 425.685 267.643 424.61 268.016 423.6C268.389 422.59 268.964 421.667 269.706 420.886C270.448 420.106 271.341 419.485 272.331 419.061C273.32 418.637 274.386 418.419 275.463 418.42H370.202C372.446 418.448 374.596 419.323 376.222 420.87C377.849 422.416 378.83 424.521 378.97 426.761L379.525 437.701C379.581 438.774 379.418 439.846 379.047 440.854C378.675 441.862 378.103 442.784 377.365 443.564C376.626 444.344 375.737 444.966 374.751 445.392C373.765 445.817 372.703 446.038 371.629 446.041V446.041Z" fill="black"/>
<path d="M397.252 393.002H245.765C244.447 392.985 243.184 392.471 242.229 391.562C241.273 390.654 240.696 389.419 240.612 388.103L239.471 365.905C239.431 365.273 239.523 364.639 239.739 364.044C239.955 363.448 240.292 362.904 240.728 362.444C241.164 361.985 241.689 361.62 242.272 361.372C242.855 361.125 243.483 361 244.116 361.005H395.587C396.907 361.019 398.172 361.532 399.128 362.441C400.084 363.35 400.66 364.588 400.74 365.905L401.898 388.103C401.935 388.735 401.842 389.367 401.625 389.961C401.407 390.556 401.071 391.099 400.635 391.558C400.2 392.017 399.675 392.382 399.093 392.631C398.511 392.879 397.885 393.006 397.252 393.002V393.002Z" fill="white"/>
<path d="M262.225 323.315C262.268 324.016 262.167 324.718 261.927 325.378C261.687 326.038 261.314 326.641 260.83 327.15C260.346 327.659 259.763 328.062 259.116 328.336C258.47 328.609 257.774 328.746 257.072 328.738C255.613 328.721 254.215 328.152 253.159 327.146C252.103 326.14 251.467 324.771 251.379 323.315C251.333 322.615 251.433 321.914 251.671 321.254C251.909 320.594 252.281 319.991 252.763 319.482C253.246 318.972 253.828 318.568 254.474 318.295C255.12 318.022 255.815 317.885 256.517 317.893C257.977 317.91 259.376 318.478 260.435 319.484C261.493 320.489 262.133 321.858 262.225 323.315V323.315Z" fill="#263238"/>
<path d="M278.92 323.315C278.966 324.015 278.867 324.717 278.628 325.377C278.39 326.036 278.018 326.64 277.536 327.149C277.054 327.658 276.471 328.062 275.825 328.336C275.179 328.609 274.484 328.746 273.783 328.738C272.323 328.724 270.923 328.157 269.866 327.15C268.809 326.143 268.175 324.772 268.09 323.315C268.044 322.615 268.144 321.914 268.382 321.254C268.62 320.594 268.992 319.991 269.474 319.482C269.957 318.972 270.539 318.568 271.185 318.295C271.831 318.022 272.526 317.885 273.228 317.893C274.687 317.906 276.087 318.474 277.144 319.481C278.201 320.487 278.835 321.858 278.92 323.315V323.315Z" fill="#263238"/>
<path d="M295.52 323.315C295.566 324.015 295.467 324.717 295.229 325.377C294.99 326.036 294.619 326.64 294.136 327.149C293.654 327.658 293.071 328.062 292.425 328.336C291.78 328.609 291.084 328.746 290.383 328.738C288.923 328.721 287.523 328.153 286.465 327.147C285.406 326.141 284.767 324.773 284.675 323.315C284.631 322.615 284.732 321.912 284.972 321.253C285.212 320.593 285.586 319.99 286.069 319.481C286.553 318.972 287.136 318.568 287.783 318.295C288.43 318.022 289.126 317.885 289.828 317.893C291.286 317.91 292.684 318.479 293.74 319.485C294.796 320.491 295.432 321.859 295.52 323.315Z" fill="#263238"/>
<path d="M312.25 323.315C312.294 324.014 312.193 324.715 311.954 325.374C311.715 326.033 311.343 326.635 310.861 327.144C310.379 327.652 309.798 328.056 309.153 328.331C308.508 328.605 307.814 328.744 307.113 328.738C305.653 328.721 304.253 328.152 303.195 327.147C302.136 326.141 301.497 324.772 301.405 323.315C301.361 322.616 301.462 321.915 301.701 321.256C301.94 320.598 302.312 319.995 302.794 319.487C303.276 318.978 303.858 318.574 304.502 318.3C305.147 318.025 305.842 317.887 306.542 317.892C308.002 317.91 309.402 318.478 310.461 319.484C311.519 320.489 312.158 321.858 312.25 323.315V323.315Z" fill="#263238"/>
<path d="M265.032 376.973C265.078 377.673 264.979 378.374 264.741 379.034C264.503 379.694 264.131 380.297 263.649 380.806C263.166 381.316 262.584 381.72 261.938 381.993C261.292 382.266 260.596 382.404 259.895 382.395C258.435 382.378 257.035 381.81 255.977 380.804C254.918 379.799 254.279 378.43 254.187 376.973C254.143 376.272 254.245 375.57 254.485 374.91C254.725 374.25 255.098 373.647 255.582 373.138C256.065 372.629 256.649 372.226 257.295 371.952C257.942 371.679 258.638 371.542 259.34 371.55C260.799 371.567 262.196 372.136 263.252 373.142C264.308 374.148 264.944 375.517 265.032 376.973Z" fill="#263238"/>
<path d="M281.695 376.973C281.738 377.672 281.637 378.373 281.398 379.032C281.159 379.69 280.787 380.293 280.306 380.801C279.824 381.31 279.242 381.714 278.597 381.988C277.953 382.263 277.258 382.401 276.558 382.395C275.097 382.378 273.698 381.81 272.639 380.804C271.581 379.799 270.941 378.43 270.849 376.973C270.803 376.273 270.903 375.571 271.141 374.911C271.379 374.252 271.751 373.648 272.233 373.139C272.716 372.63 273.298 372.226 273.944 371.952C274.59 371.679 275.285 371.542 275.987 371.55C277.447 371.567 278.846 372.135 279.905 373.141C280.964 374.147 281.603 375.515 281.695 376.973Z" fill="#263238"/>
<path d="M298.358 376.973C298.402 377.673 298.3 378.376 298.06 379.035C297.82 379.695 297.447 380.298 296.963 380.807C296.48 381.316 295.896 381.72 295.25 381.993C294.603 382.266 293.907 382.403 293.205 382.395C291.745 382.382 290.345 381.814 289.289 380.807C288.232 379.801 287.597 378.43 287.513 376.973C287.467 376.273 287.566 375.571 287.804 374.911C288.042 374.252 288.414 373.648 288.897 373.139C289.379 372.63 289.961 372.226 290.607 371.952C291.253 371.679 291.949 371.542 292.65 371.55C294.11 371.567 295.51 372.135 296.568 373.141C297.627 374.147 298.266 375.515 298.358 376.973Z" fill="#263238"/>
<path d="M315.008 376.973C315.054 377.673 314.955 378.374 314.716 379.034C314.478 379.694 314.106 380.297 313.624 380.806C313.142 381.316 312.559 381.72 311.913 381.993C311.267 382.266 310.572 382.404 309.871 382.395C308.411 382.378 307.011 381.81 305.952 380.804C304.894 379.799 304.254 378.43 304.162 376.973C304.119 376.272 304.22 375.57 304.46 374.91C304.7 374.25 305.074 373.647 305.557 373.138C306.041 372.629 306.624 372.226 307.271 371.952C307.918 371.679 308.614 371.542 309.316 371.55C310.775 371.564 312.175 372.131 313.232 373.138C314.289 374.145 314.923 375.516 315.008 376.973Z" fill="#263238"/>
<path d="M331.673 376.973C331.719 377.672 331.62 378.374 331.381 379.034C331.143 379.694 330.771 380.297 330.289 380.806C329.807 381.315 329.224 381.719 328.578 381.993C327.932 382.266 327.237 382.403 326.536 382.395C325.076 382.378 323.676 381.81 322.617 380.804C321.559 379.798 320.919 378.43 320.827 376.973C320.784 376.273 320.885 375.572 321.124 374.914C321.363 374.255 321.735 373.653 322.217 373.144C322.699 372.635 323.28 372.231 323.925 371.957C324.57 371.683 325.264 371.544 325.965 371.55C327.425 371.567 328.824 372.135 329.883 373.141C330.942 374.147 331.581 375.515 331.673 376.973Z" fill="#263238"/>
<path d="M348.339 376.973C348.383 377.673 348.281 378.376 348.041 379.035C347.801 379.695 347.428 380.298 346.944 380.807C346.461 381.316 345.877 381.72 345.23 381.993C344.584 382.266 343.888 382.403 343.186 382.395C341.727 382.378 340.33 381.809 339.274 380.803C338.217 379.797 337.582 378.429 337.493 376.973C337.448 376.273 337.547 375.571 337.785 374.911C338.023 374.252 338.395 373.648 338.877 373.139C339.36 372.63 339.942 372.226 340.588 371.952C341.234 371.679 341.929 371.542 342.631 371.55C344.091 371.567 345.49 372.135 346.549 373.141C347.608 374.147 348.247 375.515 348.339 376.973V376.973Z" fill="#263238"/>
<path d="M528.602 192.839C528.999 193.441 529.205 193.758 529.459 194.186L530.172 195.36C530.632 196.153 531.044 196.945 531.441 197.722C532.233 199.308 533.026 200.893 533.661 202.479C534.99 205.628 536.133 208.852 537.085 212.135C539.005 218.62 540.269 225.281 540.859 232.018L540.97 233.271C540.983 233.525 540.983 233.779 540.97 234.032V234.873C540.996 235.975 540.933 237.078 540.78 238.171C540.476 240.195 539.944 242.179 539.194 244.085C537.801 247.488 535.956 250.688 533.708 253.598C529.515 258.968 524.539 263.677 518.946 267.567L514.57 262.446C518.552 257.948 522.079 253.067 525.098 247.874C526.457 245.519 527.522 243.005 528.27 240.39C528.572 239.283 528.748 238.144 528.793 236.997C528.842 236.507 528.842 236.013 528.793 235.523V235.19C528.809 235.042 528.809 234.893 528.793 234.746L528.602 233.636C527.583 227.727 526.142 221.898 524.29 216.194C523.37 213.356 522.244 210.613 521.119 207.933C520.564 206.586 519.929 205.27 519.295 204.001L518.312 202.13L517.821 201.258L517.408 200.56L528.602 192.839Z" fill="#803E3C"/>
<path d="M513.856 267.599L519.596 279.729L524.146 269.47C524.146 269.47 520.103 260.591 514.633 261.416L513.856 267.599Z" fill="#7F3E3B"/>
<path d="M523.7 280.332L528.267 272.848L524.144 269.471L519.594 279.729L523.7 280.332Z" fill="#7F3E3B"/>
<path d="M497.888 560.06C499.075 560.03 500.255 559.871 501.408 559.584C501.466 559.567 501.519 559.534 501.561 559.489C501.602 559.445 501.632 559.39 501.646 559.331C501.655 559.27 501.647 559.207 501.622 559.151C501.596 559.095 501.555 559.047 501.503 559.014C501.043 558.712 497.016 556.112 495.462 556.81C495.29 556.89 495.142 557.014 495.033 557.17C494.925 557.326 494.859 557.508 494.843 557.698C494.795 557.985 494.818 558.279 494.909 558.555C495 558.831 495.157 559.081 495.367 559.283C496.086 559.838 496.981 560.114 497.888 560.06V560.06ZM500.504 559.125C498.205 559.6 496.461 559.521 495.747 558.903C495.602 558.758 495.495 558.579 495.437 558.382C495.378 558.186 495.371 557.977 495.414 557.777C495.414 557.507 495.573 557.428 495.684 557.38C496.54 557 498.871 558.126 500.504 559.125V559.125Z" fill="#F39325"/>
<path d="M501.329 559.584H501.487C501.535 559.553 501.575 559.511 501.602 559.461C501.63 559.411 501.645 559.355 501.646 559.299C501.646 559.14 501.646 555.319 500.187 554.034C500.008 553.874 499.796 553.753 499.567 553.682C499.337 553.611 499.094 553.59 498.855 553.622C498.605 553.624 498.363 553.712 498.17 553.871C497.977 554.029 497.844 554.249 497.793 554.494C497.492 556.001 499.902 558.855 501.17 559.584H501.329ZM499.061 554.209C499.19 554.205 499.318 554.227 499.437 554.273C499.557 554.32 499.667 554.389 499.759 554.478C500.596 555.712 501.028 557.174 500.996 558.664C499.727 557.65 498.221 555.493 498.411 554.589C498.411 554.447 498.522 554.256 498.919 554.209H499.061Z" fill="#F39325"/>
<path d="M482.92 553.591C482.957 553.544 482.982 553.489 482.99 553.43C482.998 553.371 482.991 553.311 482.968 553.256C482.946 553.201 482.909 553.153 482.861 553.117C482.814 553.081 482.757 553.058 482.698 553.052C482.048 553.052 476.356 552.782 475.056 554.177V554.272C474.948 554.41 474.879 554.572 474.853 554.745C474.828 554.917 474.849 555.093 474.913 555.255C474.998 555.528 475.147 555.775 475.349 555.977C475.551 556.179 475.798 556.328 476.07 556.413C477.91 556.984 481.16 554.907 482.936 553.622L482.92 553.591ZM475.531 554.59C476.245 553.828 479.384 553.622 481.731 553.654C479.273 555.335 477.228 556.128 476.197 555.81C476.018 555.756 475.854 555.658 475.721 555.525C475.589 555.392 475.491 555.229 475.436 555.049C475.404 554.988 475.388 554.92 475.388 554.851C475.388 554.782 475.404 554.714 475.436 554.653L475.531 554.59Z" fill="#F39325"/>
<path d="M482.92 553.59C482.944 553.54 482.956 553.486 482.956 553.431C482.956 553.376 482.944 553.322 482.92 553.272C482.841 553.146 481.065 550.101 478.972 549.467C478.671 549.379 478.356 549.353 478.045 549.391C477.734 549.43 477.434 549.531 477.164 549.689C476.403 550.133 476.355 550.656 476.451 550.989C476.863 552.464 480.906 553.764 482.65 553.748C482.705 553.747 482.759 553.732 482.806 553.704C482.853 553.677 482.892 553.637 482.92 553.59ZM477.228 550.418C477.317 550.331 477.418 550.256 477.529 550.196C477.725 550.072 477.945 549.991 478.175 549.961C478.406 549.931 478.639 549.952 478.861 550.022C480.24 550.387 481.524 552.163 482.111 553.035C480.224 552.828 477.354 551.671 477.117 550.783C477.096 550.716 477.096 550.644 477.116 550.576C477.136 550.509 477.174 550.448 477.228 550.403V550.418Z" fill="#F39325"/>
<path d="M500.378 146.397C498.792 154.325 495.368 171.466 500.87 176.73C500.87 176.73 498.713 184.658 484.078 184.658C467.969 184.658 476.388 176.73 476.388 176.73C485.172 174.637 484.95 168.104 483.412 161.984L500.378 146.397Z" fill="#7F3E3B"/>
<path d="M473.55 127.813C473.639 127.828 473.73 127.828 473.819 127.813C473.895 127.776 473.962 127.724 474.017 127.661C474.072 127.598 474.114 127.524 474.141 127.445C474.167 127.365 474.178 127.281 474.172 127.197C474.165 127.113 474.143 127.032 474.105 126.957C473.678 126.052 473.041 125.264 472.246 124.657C471.452 124.05 470.523 123.642 469.538 123.469C469.373 123.455 469.209 123.505 469.079 123.608C468.95 123.711 468.864 123.86 468.84 124.024C468.823 124.19 468.871 124.356 468.975 124.486C469.079 124.617 469.23 124.701 469.395 124.721V124.721C470.173 124.871 470.903 125.203 471.527 125.691C472.15 126.179 472.648 126.809 472.979 127.528C473.04 127.622 473.125 127.697 473.226 127.747C473.326 127.798 473.438 127.82 473.55 127.813Z" fill="#263238"/>
<path d="M468.745 134.774C467.497 137.088 465.94 139.222 464.115 141.116C464.609 141.568 465.196 141.907 465.834 142.11C466.471 142.312 467.146 142.374 467.81 142.289L468.745 134.774Z" fill="#630F0F"/>
<path d="M469.936 132.983C469.809 134.045 469.127 134.838 468.446 134.758C467.764 134.679 467.288 133.744 467.415 132.681C467.542 131.619 468.224 130.826 469.001 130.905C469.777 130.985 470.047 131.92 469.936 132.983Z" fill="#263238"/>
<path d="M469.205 131L466.763 130.017C466.763 130.017 467.794 132.11 469.205 131Z" fill="#263238"/>
<path d="M496.922 550.578L483.984 553.591L476.119 523.845L489.058 520.833L496.922 550.578Z" fill="#7F3E3B"/>
<path d="M516.773 559.266H503.501L504.532 528.522H517.819L516.773 559.266Z" fill="#7F3E3B"/>
<path d="M502.438 557.728H517.359C517.617 557.726 517.868 557.818 518.063 557.987C518.259 558.156 518.386 558.391 518.421 558.648L520.117 570.444C520.151 570.743 520.121 571.045 520.029 571.331C519.938 571.617 519.787 571.88 519.586 572.103C519.385 572.326 519.139 572.504 518.865 572.626C518.59 572.747 518.293 572.809 517.993 572.807C512.792 572.728 510.287 572.411 503.723 572.411C499.679 572.411 493.781 572.839 488.216 572.839C482.65 572.839 482.333 567.321 484.664 566.829C495.065 564.578 496.714 561.502 500.218 558.553C500.837 558.024 501.624 557.732 502.438 557.728Z" fill="#263238"/>
<path d="M482.843 551.608L496.399 545.377C496.63 545.267 496.892 545.245 497.137 545.315C497.383 545.386 497.594 545.543 497.731 545.758L504.216 555.779C504.368 556.036 504.463 556.323 504.497 556.62C504.531 556.918 504.502 557.219 504.413 557.504C504.323 557.789 504.175 558.053 503.977 558.277C503.779 558.501 503.537 558.682 503.265 558.807C498.508 560.9 496.098 561.677 490.136 564.42C486.474 566.101 479.037 569.97 473.995 572.348C468.953 574.726 466.353 569.795 468.255 568.368C476.77 562.026 479.212 557.475 481.162 553.337C481.492 552.574 482.09 551.959 482.843 551.608V551.608Z" fill="#263238"/>
<path opacity="0.2" d="M476.119 523.845L480.337 539.796L493.117 536.165L489.074 520.833L476.119 523.845Z" fill="black"/>
<path opacity="0.2" d="M517.817 528.522H504.53L504.007 544.378H517.294L517.817 528.522Z" fill="black"/>
<path d="M523.844 179.742C529.362 180.963 535.26 200.798 535.26 200.798L519.658 217.399C519.658 217.399 506.704 198.753 509.352 191.903C512.032 184.752 517.264 178.315 523.844 179.742Z" fill="#263238"/>
<path opacity="0.4" d="M515.031 192.379C512.24 189.826 510.353 190.587 509.069 192.616C507.8 198.515 515.316 210.867 518.345 215.544C519.74 209.963 521.341 198.198 515.031 192.379Z" fill="black"/>
<path d="M453.936 180.138C453.936 180.138 447.594 182.358 460.278 260.289H514.188C513.284 238.345 513.253 224.804 523.702 179.742C516.148 178.183 508.49 177.176 500.79 176.729C492.64 176.142 484.458 176.142 476.308 176.729C465.859 177.696 453.936 180.138 453.936 180.138Z" fill="#263238"/>
<path opacity="0.4" d="M453.444 210.043C453.793 213.832 454.253 218.098 454.856 222.918C459.279 218.938 462.895 207.617 461.563 201.021C458.402 203.586 455.663 206.63 453.444 210.043Z" fill="black"/>
<path d="M459.215 198.198C456.306 205.52 453.03 212.69 449.4 219.683C445.812 226.927 441.566 233.827 436.715 240.295L435.701 241.548L435.193 242.166C435.019 242.372 434.876 242.562 434.607 242.848C433.652 243.889 432.589 244.824 431.435 245.639C429.396 247.05 427.164 248.161 424.808 248.937C420.699 250.249 416.433 251.006 412.123 251.188C404.052 251.509 395.973 250.79 388.086 249.048L388.958 242.388C392.604 242.388 396.426 242.388 400.057 242.087C403.704 241.907 407.336 241.505 410.934 240.882C414.275 240.36 417.543 239.445 420.669 238.155C421.932 237.615 423.112 236.9 424.173 236.03C424.579 235.69 424.946 235.308 425.267 234.888C425.267 234.888 425.458 234.635 425.585 234.46L425.949 233.937L426.695 232.89C430.673 226.745 434.218 220.329 437.302 213.689C440.473 206.95 443.644 199.958 446.546 193.076L459.215 198.198Z" fill="#803E3C"/>
<path d="M453.937 180.138C447.325 181.723 439.206 199.862 439.206 199.862L452.906 219.999C452.906 219.999 471.156 197.024 468.984 190.016C466.764 182.706 462.007 178.172 453.937 180.138Z" fill="#263238"/>
<path d="M392.763 243.402L381.331 238.122L380.19 249.491C380.19 249.491 389.703 252.297 394.46 249.491L392.763 243.402Z" fill="#7F3E3B"/>
<path d="M374.498 236.981L373.404 245.638L380.19 249.491L381.332 238.123L374.498 236.981Z" fill="#7F3E3B"/>
<path d="M506.119 133.76C503.693 146.714 502.948 152.263 495.527 158.146C484.428 166.994 468.969 161.19 467.478 147.776C466.115 135.694 470.301 116.54 483.731 112.893C486.689 112.077 489.807 112.033 492.788 112.764C495.768 113.495 498.512 114.977 500.757 117.069C503.002 119.162 504.673 121.794 505.612 124.716C506.551 127.638 506.725 130.751 506.119 133.76V133.76Z" fill="#7F3E3B"/>
<path d="M477.657 136.486C476.911 143.098 476.626 160.27 491.15 160.809C508.924 161.459 514.252 146.269 512.666 140.196C521.926 132.665 523.258 119.71 512.857 109.801C502.455 99.8907 479.559 105.424 473.217 115.081C465.178 127.052 477.657 136.486 477.657 136.486Z" fill="#263238"/>
<path d="M495.461 113.655C494.605 106.678 495.271 101.874 501.804 101.874C508.336 101.874 517.247 104.237 520.514 110.912C523.78 117.587 524.05 128.036 514.932 126.974C505.815 125.912 496.492 121.995 495.461 113.655Z" fill="#F39325"/>
<path d="M505.579 111.974C503.994 103.665 511.43 80.2621 529.49 78.6765C537.862 77.963 541.731 86.9691 537.418 88.4596C545.346 88.3644 550.42 98.8452 543.031 100.415C548.866 104.157 547.423 111.831 539.099 115.605C532.899 118.459 507.72 123.485 505.579 111.974Z" fill="#263238"/>
<path d="M524.875 120.9C519.056 120.9 512.983 120.044 509.209 117.523C508.154 116.887 507.266 116.009 506.618 114.961C505.97 113.913 505.581 112.726 505.483 111.498C505.479 111.394 505.514 111.292 505.581 111.212C505.649 111.133 505.744 111.082 505.848 111.07C505.9 111.063 505.954 111.068 506.004 111.083C506.055 111.098 506.102 111.123 506.142 111.158C506.183 111.192 506.215 111.234 506.238 111.282C506.261 111.33 506.274 111.382 506.276 111.435C506.372 112.543 506.727 113.613 507.314 114.558C507.901 115.503 508.702 116.296 509.653 116.873C516.836 121.63 533.437 120.044 538.606 118.459C543.077 117 546.106 114.162 546.708 110.895C546.896 109.697 546.748 108.47 546.281 107.35C545.813 106.23 545.045 105.262 544.06 104.553C544.023 104.518 543.992 104.475 543.972 104.427C543.951 104.379 543.94 104.328 543.94 104.276C543.94 104.224 543.951 104.172 543.972 104.124C543.992 104.077 544.023 104.034 544.06 103.998C544.135 103.925 544.234 103.885 544.338 103.885C544.442 103.885 544.541 103.925 544.615 103.998C545.722 104.806 546.583 105.905 547.101 107.173C547.619 108.442 547.774 109.829 547.549 111.181C546.899 114.748 543.68 117.793 538.923 119.347C534.333 120.504 529.607 121.026 524.875 120.9V120.9Z" fill="#263238"/>
<path d="M473.614 134.774C472.138 136.845 471.529 139.411 471.917 141.925C472.441 145.255 475.675 145.477 478.022 143.352C480.369 141.228 482.414 137.39 480.686 134.632C480.302 134.036 479.771 133.548 479.146 133.215C478.52 132.882 477.819 132.714 477.11 132.729C476.401 132.743 475.708 132.938 475.096 133.296C474.484 133.655 473.974 134.163 473.614 134.774Z" fill="#7F3E3B"/>
<path d="M474.518 260.29C474.518 260.29 482.224 351.445 490.231 402.818C496.684 444.312 501.79 541.303 501.79 541.303H519.897C519.897 541.303 526.335 447.214 523.068 406.179C514.776 302.323 533.28 293.856 514.237 260.305L474.518 260.29Z" fill="#492700"/>
<path opacity="0.4" d="M497.318 294.745C490.142 302.276 484.35 311.015 480.21 320.558C482.318 341.044 484.824 363.781 487.487 383.696C498.418 355.398 501.805 324.746 497.318 294.745V294.745Z" fill="black"/>
<path d="M461.847 259.718C461.847 259.718 445.119 359.277 442.487 404.149C449.051 445.643 475.911 533.358 475.911 533.358L492.385 527.38C492.385 527.38 483.268 431.738 473.358 405.56C495.668 330.451 512.062 311.455 507.29 260.289C495.858 260.289 461.847 259.718 461.847 259.718Z" fill="#492700"/>
<path d="M473.708 537.736L495.969 531.694L494.701 522.815L470.87 529.268L473.708 537.736Z" fill="#263238"/>
<path d="M499.297 541.667H522.368L523.573 533.581L499.171 532.756L499.297 541.667Z" fill="#263238"/>
<path d="M515.028 257.118L517.454 261.954C517.644 262.334 517.2 262.715 516.582 262.715H460.008C459.533 262.715 459.12 262.477 459.089 262.16L458.597 257.403C458.597 257.07 458.993 256.785 459.517 256.785H514.14C514.304 256.762 514.471 256.781 514.626 256.839C514.781 256.897 514.919 256.993 515.028 257.118V257.118Z" fill="#F39325"/>
<path opacity="0.5" d="M515.028 257.118L517.454 261.954C517.644 262.334 517.2 262.715 516.582 262.715H460.008C459.533 262.715 459.12 262.477 459.089 262.16L458.597 257.403C458.597 257.07 458.993 256.785 459.517 256.785H514.14C514.304 256.762 514.471 256.781 514.626 256.839C514.781 256.897 514.919 256.993 515.028 257.118V257.118Z" fill="black"/>
<path d="M507.687 263.207H509.146C509.447 263.207 509.669 263.048 509.653 262.874L508.956 256.531C508.956 256.341 508.686 256.198 508.401 256.198H506.926C506.641 256.198 506.419 256.341 506.435 256.531L507.116 262.874C507.148 263.08 507.402 263.207 507.687 263.207Z" fill="#F39325"/>
<path d="M488.056 217.035C487.881 217.032 487.712 216.974 487.572 216.868C487.432 216.763 487.33 216.616 487.279 216.448C482.11 197.326 471.423 181.565 466.239 179.187C465.836 178.939 465.352 178.86 464.891 178.965C464.795 179.015 464.69 179.046 464.582 179.054C464.474 179.062 464.366 179.048 464.263 179.013C464.161 178.978 464.067 178.922 463.987 178.849C463.907 178.776 463.843 178.688 463.798 178.589C463.754 178.49 463.73 178.384 463.728 178.275C463.727 178.167 463.747 178.06 463.789 177.96C463.83 177.86 463.892 177.769 463.969 177.694C464.047 177.619 464.139 177.56 464.241 177.522C464.674 177.363 465.137 177.3 465.597 177.339C466.057 177.377 466.503 177.515 466.904 177.744C472.391 180.344 483.236 195.883 488.659 215.433C492.543 215.433 498.537 214.91 499.996 214.783C501.803 212.627 515.09 196.01 510.128 177.823C510.099 177.723 510.091 177.618 510.103 177.515C510.116 177.412 510.149 177.312 510.2 177.222C510.252 177.132 510.322 177.053 510.404 176.99C510.487 176.927 510.582 176.882 510.682 176.856C510.884 176.802 511.099 176.831 511.28 176.935C511.461 177.039 511.594 177.21 511.65 177.411C517.183 197.643 501.137 215.893 500.963 216.067C500.901 216.144 500.824 216.208 500.737 216.254C500.65 216.301 500.554 216.329 500.455 216.337C500.376 216.337 492.464 217.035 488.056 217.035Z" fill="#F39325"/>
<path d="M514.331 228.228C505.689 212.039 502.153 210.897 500.615 205.697C501.781 202.789 503.444 200.106 505.531 197.769C504.484 197.468 502.233 197.024 500.774 196.754C500.933 196.041 501.107 195.343 501.265 194.661C499.678 194.483 498.073 194.558 496.509 194.883V193.297C494.495 192.859 492.426 192.726 490.373 192.901C490.552 193.652 490.727 194.413 490.896 195.184C489.31 195.486 486.9 195.977 485.743 196.31C487.992 198.857 489.644 201.875 490.579 205.142C485.917 213.149 467.81 264.617 497.27 268.565C526.73 272.513 522.956 244.433 514.331 228.228Z" fill="#F39325"/>
<path opacity="0.4" d="M514.331 228.228C505.689 212.039 502.153 210.897 500.615 205.697C501.781 202.789 503.444 200.106 505.531 197.769C504.484 197.468 502.233 197.024 500.774 196.754C500.933 196.041 501.107 195.343 501.265 194.661C499.678 194.483 498.073 194.558 496.509 194.883V193.297C494.495 192.859 492.426 192.726 490.373 192.901C490.552 193.652 490.727 194.413 490.896 195.184C489.31 195.486 486.9 195.977 485.743 196.31C487.992 198.857 489.644 201.875 490.579 205.142C485.917 213.149 467.81 264.617 497.27 268.565C526.73 272.513 522.956 244.433 514.331 228.228Z" fill="white"/>
<path d="M489.373 203.605C489.19 204.421 489.11 205.258 489.135 206.094C489.135 206.681 490.721 207.077 492.481 207.252C494.241 207.426 501.63 207.711 501.392 206.887C501.154 206.062 501.757 204.937 501.788 204.239C501.82 203.541 498.855 203.51 496.366 203.605C493.876 203.7 489.865 202.717 489.373 203.605Z" fill="#F39325"/>
<path d="M472.233 263.207H473.691C473.977 263.207 474.199 263.048 474.183 262.874L473.501 256.531C473.501 256.341 473.232 256.198 472.93 256.198H471.519C471.234 256.198 471.012 256.341 471.028 256.531L471.709 262.874C471.678 263.08 471.931 263.207 472.233 263.207Z" fill="#F39325"/>
</svg>
